<?xml version="1.0" encoding="UTF-8"?>
<svg id="Laag_1" data-name="Laag 1" xmlns="http://www.w3.org/2000/svg" viewBox="0 0 530.96 705.99">
  <defs>
    <style>
      .cls-1 {
        fill: #3dad55;
      }
    </style>
  </defs>
  <path class="cls-1" d="M340.84,183.46c52.43-12.41,81.02-63.01,68.73-113.38-11.63-47.66-60.36-80.45-113.57-67.07h.01c-54.75,13.76-80.16,69.68-65.7,116.94,14.76,48.22,64.22,74.47,110.53,63.51Z"/>
  <path class="cls-1" d="M530.92,610.79c.03-.59.04-1.19.04-1.8l-.67-255.52c-.22-69.91-59.32-130.06-129.11-131.61-54.2-1.2-103.62-1.4-157.58.42-68.28,2.31-125.43,63.34-125.62,131.23l-.46,169.42c-14.83-3.94-31.11-4.3-47.83-.1h.01c-54.75,13.76-80.16,69.68-65.7,116.94,14.76,48.22,64.22,74.47,110.53,63.51,44.36-10.5,71.64-48.33,71.56-90.23h0s.01-253.44.01-253.44c-.02-35.02,26.2-68.5,63.45-69.63,50.73-1.53,100.06-1.6,154.79,1.1h0c35.55,1.75,58.14,38.55,58.03,68l-.38,163.98c-14.72-3.84-30.85-4.16-47.42.01h0c-54.75,13.76-80.16,69.68-65.7,116.94,14.76,48.22,64.22,74.47,110.53,63.51,45.24-10.71,72.72-49.84,71.52-92.73Z"/>
</svg>