<?xml version="1.0" encoding="UTF-8"?>
<svg id="Laag_1" data-name="Laag 1" xmlns="http://www.w3.org/2000/svg" viewBox="0 0 532.92 706">
  <defs>
    <style>
      .cls-1 {
        fill: #3dad55;
      }
    </style>
  </defs>
  <path class="cls-1" d="M347.94,291.08c-54.73-2.7-104.06-2.63-154.79-1.1-37.25,1.13-63.47,34.61-63.45,69.63l.18,285.7c.02,25.42,8.51,4.61-13.53,18.96-47.07,30.65-7.46,56.19-52.66,21.06-13.15-10.22,10.51-17.58,8.42-30.74-11.16-70.62-3.42-30.49-11.16-70.62l.63-230.46c.19-67.89,57.34-128.92,125.62-131.23,53.96-1.82,103.38-1.62,157.58-.42,69.79,1.55,128.89,61.7,129.11,131.61l.67,303.1c.06,17.82-13.05,39.24-27.89,49.43l-18.61-18.56c-11.38-11.35-16.3-20.02-16.85-32.85-2.62-61.47,6.32-64.04-5.77-71.25l.52-224.26c.11-29.45-22.48-66.25-58.03-68.01Z"/>
  <path class="cls-1" d="M239.6,3.01c53.21-13.38,101.94,19.41,113.57,67.07,12.29,50.37-16.3,100.97-68.73,113.38-46.31,10.96-95.77-15.29-110.53-63.51-14.46-47.26,10.95-103.18,65.7-116.95Z"/>
  <path class="cls-1" d="M69.7,522.37c53.21-13.38,101.94,19.41,113.57,67.07,12.29,50.37-16.3,100.97-68.73,113.38-46.31,10.96-95.77-15.29-110.53-63.51-14.46-47.26,10.95-103.18,65.7-116.95Z"/>
  <path class="cls-1" d="M416.52,523.07c53.21-13.38,101.94,19.41,113.57,67.07,12.29,50.37-16.3,100.97-68.73,113.38-46.31,10.96-95.77-15.29-110.53-63.51-14.46-47.26,10.95-103.18,65.7-116.95Z"/>
</svg>