<?xml version="1.0" encoding="UTF-8"?>
<svg id="Laag_1" xmlns="http://www.w3.org/2000/svg" version="1.1" viewBox="0 0 532.9 706">
  <!-- Generator: Adobe Illustrator 30.2.1, SVG Export Plug-In . SVG Version: 2.1.1 Build 1)  -->
  <path d="M341.8,183.5c52.4-12.4,81-63,68.7-113.4-11.6-47.7-60.4-80.5-113.6-67.1h0c-54.8,13.8-80.2,69.7-65.7,116.9,14.8,48.2,64.2,74.5,110.5,63.5Z"/>
  <path d="M531.9,610.8c0-.6,0-1.2,0-1.8l-.7-255.5c-.2-69.9-59.3-130.1-129.1-131.6-54.2-1.2-103.6-1.4-157.6.4-68.3,2.3-125.4,63.3-125.6,131.2l-.5,169.4c-14.8-3.9-31.1-4.3-47.8,0h0c-54.8,13.8-80.2,69.7-65.7,116.9,14.8,48.2,64.2,74.5,110.5,63.5,44.4-10.5,71.6-48.3,71.6-90.2h0s0-253.4,0-253.4c0-35,26.2-68.5,63.5-69.6,50.7-1.5,100.1-1.6,154.8,1.1h0c35.5,1.8,58.1,38.6,58,68l-.4,164c-14.7-3.8-30.9-4.2-47.4,0h0c-54.8,13.8-80.2,69.7-65.7,116.9,14.8,48.2,64.2,74.5,110.5,63.5,45.2-10.7,72.7-49.8,71.5-92.7Z"/>
</svg>